<svg width="49" height="48" viewBox="0 0 49 48" fill="none" xmlns="http://www.w3.org/2000/svg">
<rect x="1" y="0.5" width="47" height="47" rx="3.5" fill="#121214"/>
<rect x="1" y="0.5" width="47" height="47" rx="3.5" fill="url(#paint0_linear_801_457)"/>
<path d="M34.4586 22.434C34.3612 22.1733 34.1119 22 33.8332 22H25.7832L30.4266 12.972C30.5726 12.688 30.4972 12.3407 30.2459 12.1433C30.1246 12.0473 29.9786 12 29.8332 12C29.6779 12 29.5226 12.0547 29.3979 12.162L24.4999 16.392L14.7312 24.8287C14.5206 25.0107 14.4446 25.3047 14.5419 25.5653C14.6392 25.826 14.8879 26 15.1666 26H23.2166L18.5732 35.028C18.4272 35.312 18.5026 35.6593 18.7539 35.8567C18.8752 35.9527 19.0212 36 19.1666 36C19.3219 36 19.4772 35.9453 19.6019 35.838L24.4999 31.608L34.2686 23.1713C34.4799 22.9893 34.5552 22.6953 34.4586 22.434Z" fill="#FFAC33"/>
<rect x="1" y="0.5" width="47" height="47" rx="3.5" stroke="url(#paint1_linear_801_457)"/>
<defs>
<linearGradient id="paint0_linear_801_457" x1="24.5" y1="0" x2="24.5" y2="48" gradientUnits="userSpaceOnUse">
<stop stop-color="#202024"/>
<stop offset="1" stop-color="#202024" stop-opacity="0.2"/>
</linearGradient>
<linearGradient id="paint1_linear_801_457" x1="24.5" y1="0" x2="24.5" y2="48" gradientUnits="userSpaceOnUse">
<stop stop-color="#323238"/>
<stop offset="1" stop-color="#323238" stop-opacity="0.3"/>
</linearGradient>
</defs>
</svg>
