<svg width="49" height="48" viewBox="0 0 49 48" fill="none" xmlns="http://www.w3.org/2000/svg">
<rect x="1" y="0.5" width="47" height="47" rx="3.5" fill="#121214"/>
<rect x="1" y="0.5" width="47" height="47" rx="3.5" fill="url(#paint0_linear_801_479)"/>
<path d="M34.6606 33.1926C34.6606 34.7366 33.3973 36 31.8533 36H16.4128C14.8688 36 13.6055 34.7366 13.6055 33.1926V21.2613C13.6055 19.7173 14.8688 18.454 16.4128 18.454H31.8533C33.3973 18.454 34.6606 19.7173 34.6606 21.2613V33.1926Z" fill="#FDD888"/>
<path d="M36.7662 19.1558C36.7662 20.6999 35.5029 21.9632 33.9589 21.9632H14.3074C12.7633 21.9632 11.5 20.6999 11.5 19.1558C11.5 17.6118 12.7633 16.3484 14.3074 16.3484H33.9589C35.5029 16.3484 36.7662 17.6118 36.7662 19.1558Z" fill="#FDD888"/>
<path d="M13.6055 21.9632H34.6606V23.3669H13.6055V21.9632Z" fill="#FCAB40"/>
<path d="M24.835 13.5411H23.4313C22.2684 13.5411 21.3258 14.4836 21.3258 15.6466V35.9999H26.9405V15.6466C26.9405 14.4843 25.9979 13.5411 24.835 13.5411Z" fill="#DA2F47"/>
<path d="M22.7294 16.3485C23.5014 16.3485 23.6158 15.9864 22.9828 15.5435L18.265 12.2406C17.632 11.7978 16.8017 11.9838 16.4185 12.654L15.0036 15.1301C14.6204 15.8004 14.939 16.3485 15.711 16.3485H22.7294ZM25.5368 16.3485C24.7647 16.3485 24.6503 15.9864 25.2834 15.5435L30.0019 12.2406C30.6342 11.7978 31.4652 11.9838 31.8484 12.654L33.2633 15.1294C33.6458 15.8004 33.3272 16.3485 32.5552 16.3485H25.5368Z" fill="#DA2F47"/>
<rect x="1" y="0.5" width="47" height="47" rx="3.5" stroke="url(#paint1_linear_801_479)"/>
<defs>
<linearGradient id="paint0_linear_801_479" x1="24.5" y1="0" x2="24.5" y2="48" gradientUnits="userSpaceOnUse">
<stop stop-color="#202024"/>
<stop offset="1" stop-color="#202024" stop-opacity="0.2"/>
</linearGradient>
<linearGradient id="paint1_linear_801_479" x1="24.5" y1="0" x2="24.5" y2="48" gradientUnits="userSpaceOnUse">
<stop stop-color="#323238"/>
<stop offset="1" stop-color="#323238" stop-opacity="0.3"/>
</linearGradient>
</defs>
</svg>
