<svg width="49" height="48" viewBox="0 0 49 48" fill="none" xmlns="http://www.w3.org/2000/svg">
<rect x="1" y="0.5" width="47" height="47" rx="3.5" fill="#121214"/>
<rect x="1" y="0.5" width="47" height="47" rx="3.5" fill="url(#paint0_linear_801_447)"/>
<path d="M12.5185 23.6571L18.0042 18.8571L28.9756 19.5428L29.6614 30.5143L24.8614 36C24.8614 36 24.862 31.8864 20.7471 27.7714C16.6321 23.6564 12.5185 23.6571 12.5185 23.6571Z" fill="#A0041E"/>
<path d="M12.5 35.9999C12.5 35.9999 12.4753 30.5286 14.5469 28.4571C16.6184 26.3855 22.1185 26.5282 22.1185 26.5282C22.1185 26.5282 22.1178 31.8856 20.0607 33.9428C18.0036 35.9999 12.5 35.9999 12.5 35.9999Z" fill="#FFAC33"/>
<path d="M18.0035 33.2571C19.5184 33.2571 20.7464 32.0291 20.7464 30.5143C20.7464 28.9994 19.5184 27.7714 18.0035 27.7714C16.4887 27.7714 15.2607 28.9994 15.2607 30.5143C15.2607 32.0291 16.4887 33.2571 18.0035 33.2571Z" fill="#FFCC4D"/>
<path d="M36.5179 12C36.5179 12 29.6607 12 21.4322 18.8571C17.3179 22.2857 17.3179 28.4571 18.6893 29.8286C20.0607 31.2 26.2322 31.2 29.6607 27.0857C36.5179 18.8571 36.5179 12 36.5179 12Z" fill="#55ACEE"/>
<path d="M30.3464 15.4286C29.2335 15.4286 28.2804 16.0944 27.8497 17.0469C28.194 16.8912 28.5732 16.8 28.975 16.8C30.4897 16.8 31.7178 18.0281 31.7178 19.5429C31.7178 19.9447 31.6266 20.3239 31.4717 20.6674C32.4241 20.2375 33.0893 19.2844 33.0893 18.1714C33.0893 16.6567 31.8612 15.4286 30.3464 15.4286Z" fill="black"/>
<path d="M17.3185 31.2C17.3185 31.2 17.3185 28.4571 18.0043 27.7714C18.69 27.0857 26.9192 20.2292 27.6043 20.9143C28.2893 21.5993 21.4321 29.8285 20.7464 30.5142C20.0607 31.2 17.3185 31.2 17.3185 31.2Z" fill="#A0041E"/>
<rect x="1" y="0.5" width="47" height="47" rx="3.5" stroke="url(#paint1_linear_801_447)"/>
<defs>
<linearGradient id="paint0_linear_801_447" x1="24.5" y1="0" x2="24.5" y2="48" gradientUnits="userSpaceOnUse">
<stop stop-color="#202024"/>
<stop offset="1" stop-color="#202024" stop-opacity="0.2"/>
</linearGradient>
<linearGradient id="paint1_linear_801_447" x1="24.5" y1="0" x2="24.5" y2="48" gradientUnits="userSpaceOnUse">
<stop stop-color="#323238"/>
<stop offset="1" stop-color="#323238" stop-opacity="0.3"/>
</linearGradient>
</defs>
</svg>
