<svg width="49" height="48" viewBox="0 0 49 48" fill="none" xmlns="http://www.w3.org/2000/svg">
<rect x="1" y="0.5" width="47" height="47" rx="3.5" fill="#121214"/>
<rect x="1" y="0.5" width="47" height="47" rx="3.5" fill="url(#paint0_linear_801_468)"/>
<path d="M35.5399 16.4391L33.6152 18.3646C33.6152 18.3646 32.3313 19.0062 31.0481 17.7223C29.7643 16.4391 30.4059 15.1553 30.4059 15.1553L32.3313 13.2298C32.9736 12.5882 32.2021 12 31.623 12C28.7794 12 26.4749 14.3045 26.4749 17.1474C26.4749 17.5468 26.5255 17.9343 26.6111 18.3077L22.2597 22.6591L26.1099 26.5093L30.4613 22.1586C30.8355 22.2442 31.2222 22.2948 31.6223 22.2948C34.4652 22.2948 36.7697 19.9903 36.7697 17.1474C36.7704 16.5648 36.1815 15.7975 35.5399 16.4391ZM22.1839 22.7847L13.6279 31.3401C12.5785 32.3902 12.5785 34.0924 13.6279 35.1425C14.6787 36.192 16.3802 36.192 17.4303 35.1425L25.985 26.5872L22.1839 22.7847ZM15.5456 34.3486C14.9707 34.3486 14.5053 33.8825 14.5053 33.3084C14.5053 32.7342 14.9714 32.2674 15.5456 32.2674C16.1205 32.2674 16.5859 32.7335 16.5859 33.3084C16.5859 33.8825 16.1205 34.3486 15.5456 34.3486Z" fill="#8899A6"/>
<path d="M33.1413 35.3601C33.9598 36.1786 35.2626 36.2172 36.0341 35.445C36.8062 34.6729 36.7676 33.3708 35.9491 32.5523L19.6183 16.2215C18.7991 15.4023 17.4977 15.3644 16.7256 16.1365C15.9534 16.9087 15.992 18.2108 16.8105 19.0293L33.1413 35.3601Z" fill="#F4900C"/>
<path d="M26.5529 12.627C26.5529 12.627 22.3412 10.5211 18.8315 14.0309L13.9178 18.9445C13.9178 18.9445 13.2159 18.2425 12.5139 18.9445L11.812 19.6464C11.812 19.6464 11.11 20.3484 11.812 21.0503L14.6198 23.8581C14.6198 23.8581 15.3217 24.5601 16.0237 23.8581L16.7256 23.1562C16.7256 23.1562 17.4276 22.4542 16.7256 21.7523L16.6709 21.6975C17.2114 21.176 18.0207 20.6446 18.8315 21.0503L21.6393 18.2425C21.6393 18.2425 20.9373 16.1367 22.3412 14.7328C23.7451 13.3289 24.4471 13.3289 25.851 13.3289C27.2548 13.3289 26.5529 12.627 26.5529 12.627Z" fill="#66757F"/>
<rect x="1" y="0.5" width="47" height="47" rx="3.5" stroke="url(#paint1_linear_801_468)"/>
<defs>
<linearGradient id="paint0_linear_801_468" x1="24.5" y1="0" x2="24.5" y2="48" gradientUnits="userSpaceOnUse">
<stop stop-color="#202024"/>
<stop offset="1" stop-color="#202024" stop-opacity="0.2"/>
</linearGradient>
<linearGradient id="paint1_linear_801_468" x1="24.5" y1="0" x2="24.5" y2="48" gradientUnits="userSpaceOnUse">
<stop stop-color="#323238"/>
<stop offset="1" stop-color="#323238" stop-opacity="0.3"/>
</linearGradient>
</defs>
</svg>
